PathFileType	4	(X/Y/Z)	C:\Users\dbl\Desktop\20210112\20210112\bx_n_5_501.trc
DataRate	CameraRate	NumFrames	NumMarkers	Units	OrigDataRate	OrigDataStartFrame	OrigNumFrames
50.00	50.00	       6	43	mm	50.00	259	       517
Frame#	Time	Top.Head			R.Acromium			L.Acromium			Sternum			R.ASIS			L.ASIS			V.Sacral			R.Thigh.Upper			R.Thigh.Front			R.Thigh.Rear			R.Knee.Lat			R.Knee.Med			R.Shank.Upper			R.Shank.Front			R.Shank.Rear			R.Ankle.Lat			R.Midfoot.Lat			R.Toe.Lat			R.Toe.Tip			R.Toe.Med			R.Ankle.Med			R.Midfoot.Sup			R.Heel			L.Thigh.Upper			L.Thigh.Front			L.Thigh.Rear			L.Knee.Lat			L.Knee.Med			L.Shank.Upper			L.Shank.Front			L.Shank.Rear			L.Ankle.Lat			L.Midfoot.Lat			L.Toe.Lat			L.Toe.Tip			L.Toe.Med			L.Ankle.Med			L.Midfoot.Sup			L.Heel			origin1 front left			origin2 front right			origin 3 back right			origin 4 back leftt			
		X1	Y1	Z1	X2	Y2	Z2	X3	Y3	Z3	X4	Y4	Z4	X5	Y5	Z5	X6	Y6	Z6	X7	Y7	Z7	X8	Y8	Z8	X9	Y9	Z9	X10	Y10	Z10	X11	Y11	Z11	X12	Y12	Z12	X13	Y13	Z13	X14	Y14	Z14	X15	Y15	Z15	X16	Y16	Z16	X17	Y17	Z17	X18	Y18	Z18	X19	Y19	Z19	X20	Y20	Z20	X21	Y21	Z21	X22	Y22	Z22	X23	Y23	Z23	X24	Y24	Z24	X25	Y25	Z25	X26	Y26	Z26	X27	Y27	Z27	X28	Y28	Z28	X29	Y29	Z29	X30	Y30	Z30	X31	Y31	Z31	X32	Y32	Z32	X33	Y33	Z33	X34	Y34	Z34	X35	Y35	Z35	X36	Y36	Z36	X37	Y37	Z37	X38	Y38	Z38	X39	Y39	Z39	X40	Y40	Z40	X41	Y41	Z41	X42	Y42	Z42	X43	Y43	Z43	

259	5.160	-754.12488	105.86117	1847.53223	-725.91644	-69.05395	1532.93372	-717.45923	293.36618	1540.54077	-627.19604	107.55423	1360.95325	-589.78119	1.66725	1073.58691	-617.00745	256.15936	1070.12061	-812.95807	105.35841	1055.31042	-678.52271	-66.27115	877.13342	-597.43323	-7.49065	808.89575	-697.59564	-56.16029	761.68591	-716.50226	-32.02814	618.38580	-694.59418	75.06862	573.21631	-723.27008	-30.05371	571.24432	-671.02399	14.97603	521.47943	-766.18823	-40.54979	490.63324	-760.72443	-19.94918	207.75842	-649.65906	-69.17883	160.32262	-606.51740	-74.85273	156.81329	-548.72656	-24.90034	161.94255	-600.79865	25.53729	169.61649	-719.10132	68.21424	216.84532	-674.60327	51.86905	161.14749	-792.91125	39.13539	174.76694	-693.37799	288.49774	875.43500	-595.61224	229.01836	796.08557	-701.23492	273.39484	745.91016	-731.29498	255.06044	643.99475	-693.82770	149.02408	578.22937	-733.74524	251.39091	577.10175	-679.30615	210.82130	536.17084	-773.36627	260.24710	502.50970	-769.38495	228.56888	204.98183	-660.85376	298.95007	156.58565	-624.41504	306.82025	158.46100	-556.51239	255.57243	164.27205	-592.85767	219.04198	174.59337	-712.88794	155.12560	217.86902	-675.99988	173.85510	159.34814	-796.47101	179.18118	184.14612	-528.02045	304.62640	146.92102	-517.69196	-72.82415	143.24908	-875.93909	-78.73183	141.41084	-882.45349	296.20236	144.78349	
260	5.180	-756.66827	105.71946	1847.33154	-727.34192	-69.66238	1532.90381	-718.64319	292.75726	1540.39258	-627.45886	106.83129	1361.10925	-588.32922	1.40588	1073.99915	-615.77869	255.90753	1069.81274	-812.27594	104.75121	1055.28784	-678.05273	-66.94804	877.04150	-597.04059	-7.97040	808.67877	-697.29468	-56.72516	761.61700	-716.34265	-32.47523	618.29419	-694.50635	74.65522	573.20599	-723.20483	-30.42600	571.19495	-670.90881	14.73165	521.51019	-766.05164	-40.88266	490.56348	-760.80560	-20.05164	207.69498	-649.68341	-69.21256	160.31464	-606.51752	-74.85991	156.80580	-548.72845	-24.89621	161.92265	-600.77484	25.53472	169.62936	-719.15723	68.13931	216.87148	-674.60022	51.80299	161.19792	-792.90533	39.10878	174.75385	-692.66864	287.91440	875.45782	-595.03119	228.32729	796.05011	-700.64307	272.98712	745.95795	-730.85077	254.80382	644.11993	-693.59760	148.64600	578.02753	-733.43304	251.07430	577.19312	-679.02393	210.40712	536.04480	-773.03821	259.94016	502.57162	-769.28497	228.51727	204.95917	-660.87482	298.93875	156.66611	-624.37256	306.77466	158.48198	-556.52191	255.55740	164.29010	-592.87213	218.98607	174.54704	-712.86981	154.99173	217.77982	-675.99237	173.83716	159.27864	-796.47241	179.12386	184.08392	-528.00140	304.61432	146.93434	-517.69189	-72.85946	143.25496	-875.94861	-78.72421	141.43057	-882.45673	296.19617	144.78098	
261	5.200	-759.04175	105.53529	1847.13257	-728.53546	-70.28937	1532.80493	-719.64838	292.16074	1540.26904	-627.65814	106.14017	1361.23975	-587.00586	1.15242	1074.38110	-614.61804	255.64284	1069.48511	-811.64539	104.06619	1055.29993	-677.61603	-67.61080	876.98633	-596.74792	-8.39891	808.42981	-697.00439	-57.25630	761.54376	-716.23785	-32.98558	618.24939	-694.49225	74.20601	573.23193	-723.20789	-30.77979	571.12854	-670.88812	14.39340	521.52777	-765.96600	-41.21765	490.49033	-760.91473	-20.15372	207.57843	-649.71307	-69.26027	160.30742	-606.52814	-74.87144	156.78922	-548.75397	-24.89799	161.93639	-600.77631	25.51902	169.63702	-719.16376	68.02701	216.93408	-674.63452	51.72956	161.24655	-792.91711	39.05622	174.76428	-692.11536	287.34164	875.47437	-594.63531	227.69763	795.98682	-700.17609	272.60638	745.94702	-730.49500	254.51425	644.23871	-693.48218	148.40683	577.78479	-733.17169	250.75974	577.23047	-678.81415	210.05280	535.89801	-772.78088	259.73587	502.61777	-769.16840	228.45178	204.92644	-660.88708	298.85965	156.75313	-624.34393	306.71732	158.48701	-556.53485	255.52411	164.30750	-592.87854	218.94113	174.49925	-712.89777	154.86873	217.71973	-675.98480	173.79640	159.19376	-796.47131	179.06180	184.02400	-528.00189	304.61139	146.91663	-517.71204	-72.88168	143.25557	-875.96130	-78.71432	141.45314	-882.46344	296.19580	144.77863	
262	5.220	-761.25574	105.26907	1846.93335	-729.49377	-70.91912	1532.66370	-720.46106	291.57361	1540.16138	-627.80884	105.49705	1361.28687	-585.80908	0.90675	1074.73267	-613.52533	255.36586	1069.14014	-811.11975	103.33849	1055.33289	-677.12299	-68.23265	876.93317	-596.48865	-8.78051	808.19751	-696.66528	-57.76637	761.47833	-716.19189	-33.48735	618.19360	-694.60510	73.71069	573.28802	-723.22113	-31.15326	571.04181	-670.98126	13.96912	521.48737	-765.91809	-41.57214	490.42276	-761.00500	-20.26948	207.43097	-649.76160	-69.32110	160.28345	-606.54510	-74.88805	156.77077	-548.80133	-24.89450	161.97308	-600.81256	25.48351	169.65057	-719.12714	67.89010	217.02431	-674.70471	51.67058	161.31155	-792.95245	38.96875	174.78313	-691.73071	286.81604	875.48444	-594.38904	227.15071	795.90668	-699.83264	272.27307	745.92108	-730.18787	254.11279	644.27875	-693.42792	148.21587	577.59454	-732.90552	250.41141	577.18018	-678.62518	209.76276	535.79065	-772.57874	259.59085	502.65244	-769.06769	228.37889	204.90982	-660.87384	298.74390	156.81696	-624.33026	306.66144	158.48715	-556.53064	255.47339	164.32845	-592.86890	218.90417	174.46661	-712.93976	154.73589	217.71117	-675.97205	173.74089	159.11281	-796.46899	179.01680	183.98619	-528.01166	304.60641	146.87286	-517.73706	-72.86887	143.25362	-875.96466	-78.69263	141.46568	-882.46564	296.19101	144.77234	
263	5.240	-763.31934	104.90975	1846.73950	-730.22876	-71.55421	1532.51318	-721.10486	290.97092	1540.06091	-627.87817	104.91234	1361.28809	-584.73688	0.66874	1075.05383	-612.50043	255.07716	1068.77991	-810.74908	102.58578	1055.36682	-676.53326	-68.80910	876.85693	-596.19812	-9.11466	808.02435	-696.25800	-58.25312	761.42139	-716.16711	-33.95530	618.12439	-694.86707	73.18661	573.40204	-723.19135	-31.60368	570.95721	-671.13513	13.50882	521.39850	-765.88397	-41.95002	490.37802	-761.04608	-20.39428	207.26683	-649.82007	-69.37583	160.25446	-606.55792	-74.90590	156.76100	-548.86188	-24.87571	162.01276	-600.86145	25.44568	169.67191	-719.08746	67.75284	217.12247	-674.78876	51.64458	161.39493	-793.01215	38.85147	174.79384	-691.49744	286.38074	875.51202	-594.22754	226.68010	795.82727	-699.60291	271.99841	745.92950	-729.92285	253.61288	644.21082	-693.34729	147.98235	577.52496	-732.61865	250.05925	577.09357	-678.42200	209.50372	535.75983	-772.42938	259.46408	502.70126	-768.99481	228.30789	204.91176	-660.84161	298.63889	156.86308	-624.33209	306.62671	158.49039	-556.50232	255.42296	164.35454	-592.84521	218.86880	174.45796	-712.97656	154.59924	217.75108	-675.94934	173.67964	159.05186	-796.46777	179.00757	183.98332	-528.01953	304.58743	146.81844	-517.75031	-72.84357	143.24721	-875.96436	-78.67622	141.47469	-882.46234	296.18701	144.76813	
264	5.260	-765.23517	104.47980	1846.55518	-730.78094	-72.20000	1532.36670	-721.62823	290.34335	1539.97876	-627.85938	104.37060	1361.34021	-583.78729	0.43824	1075.34448	-611.54303	254.77730	1068.40674	-810.52014	101.83274	1055.36255	-675.87512	-69.34579	876.75757	-595.84698	-9.39042	807.92212	-695.78503	-58.70018	761.33411	-716.11761	-34.41376	618.08673	-695.16174	72.69917	573.56738	-723.08228	-32.15165	570.89636	-671.25836	13.06641	521.31506	-765.83600	-42.36300	490.36688	-761.04565	-20.49851	207.09218	-649.86896	-69.41727	160.23784	-606.55035	-74.91953	156.76579	-548.92834	-24.83895	162.04153	-600.89697	25.41852	169.69641	-719.06390	67.62423	217.21089	-674.85669	51.65569	161.48418	-793.08575	38.72240	174.78925	-691.38391	286.02884	875.54742	-594.10065	226.29492	795.76923	-699.46844	271.74109	745.97040	-729.71808	253.11942	644.10419	-693.19287	147.67677	577.57397	-732.34644	249.75447	577.03778	-678.21716	209.25212	535.79852	-772.34473	259.35788	502.78790	-768.93799	228.25238	204.91629	-660.80377	298.56512	156.91777	-624.34113	306.61804	158.50841	-556.46558	255.38887	164.37317	-592.82886	218.82640	174.46579	-713.00464	154.48805	217.78313	-675.91357	173.62076	159.02061	-796.46735	179.02298	184.01115	-528.01965	304.55447	146.78082	-517.75012	-72.83868	143.24174	-875.97058	-78.68787	141.48517	-882.46490	296.19910	144.78072	
